<svg width="11" height="11" viewBox="0 0 11 11" fill="none" xmlns="http://www.w3.org/2000/svg">
<path d="M5.78007 10.53C5.63945 10.6705 5.44882 10.7493 5.25007 10.7493C5.05132 10.7493 4.8607 10.6705 4.72007 10.53L0.470073 6.28C0.329622 6.13938 0.250732 5.94876 0.250732 5.75001C0.250732 5.55125 0.329622 5.36063 0.470073 5.22001L4.72007 0.970005C4.86233 0.837597 5.05039 0.765493 5.2447 0.76885C5.43902 0.772207 5.62447 0.850762 5.76207 0.988005C5.89932 1.12561 5.97787 1.31106 5.98123 1.50538C5.98458 1.69969 5.91248 1.88774 5.78007 2.03001L2.81007 5.00001H10.2501C10.449 5.00001 10.6397 5.07902 10.7804 5.21968C10.9211 5.36033 11.0001 5.55109 11.0001 5.75001C11.0001 5.94892 10.9211 6.13968 10.7804 6.28033C10.6397 6.42099 10.449 6.50001 10.2501 6.50001H2.81007L5.78007 9.47001C5.92052 9.61063 5.99941 9.80126 5.99941 10C5.99941 10.1988 5.92052 10.3894 5.78007 10.53Z" fill="currentColor"/>
</svg>
