<svg width="15" height="15" viewBox="0 0 15 15" fill="none" xmlns="http://www.w3.org/2000/svg">
<path d="M10.0131 1.427C10.3412 1.09908 10.7862 0.914871 11.2501 0.914871C11.714 0.914871 12.1589 1.09908 12.4871 1.427L13.5731 2.513C13.901 2.84115 14.0852 3.28608 14.0852 3.75C14.0852 4.21391 13.901 4.65884 13.5731 4.987L4.9631 13.597C4.7531 13.807 4.4931 13.961 4.2071 14.042L0.956095 14.972C0.827418 15.0088 0.691244 15.0104 0.561701 14.9768C0.432158 14.9432 0.313965 14.8756 0.219384 14.7809C0.124803 14.6862 0.0572802 14.568 0.0238199 14.4384C-0.00964046 14.3088 -0.00781899 14.1726 0.0290952 14.044L0.958095 10.794C1.0391 10.508 1.1931 10.247 1.4031 10.036L10.0131 1.426V1.427ZM10.1891 6.25L8.7501 4.81L2.4641 11.097C2.43403 11.127 2.41202 11.1642 2.4001 11.205L1.8421 13.158L3.7951 12.6C3.8359 12.5881 3.87304 12.5661 3.9031 12.536L10.1891 6.25ZM11.4271 2.487C11.4039 2.46372 11.3763 2.44524 11.3459 2.43264C11.3155 2.42004 11.283 2.41355 11.2501 2.41355C11.2172 2.41355 11.1847 2.42004 11.1543 2.43264C11.1239 2.44524 11.0963 2.46372 11.0731 2.487L9.8111 3.75L11.2501 5.19L12.5131 3.927C12.5364 3.90377 12.5548 3.87619 12.5675 3.84581C12.5801 3.81544 12.5865 3.78288 12.5865 3.75C12.5865 3.71711 12.5801 3.68455 12.5675 3.65418C12.5548 3.62381 12.5364 3.59622 12.5131 3.573L11.4271 2.487Z" fill="#7F7F7F"/>
</svg>
