<svg width="24" height="14" viewBox="0 0 24 14" fill="none" xmlns="http://www.w3.org/2000/svg">
<path d="M13.14 13.68C13.505 13.68 13.812 13.573 14.178 13.357L22.686 8.35998C23.309 7.99498 23.624 7.54598 23.624 6.98998C23.624 6.42598 23.317 6.00198 22.686 5.62898L14.178 0.631983C13.812 0.415983 13.498 0.307983 13.132 0.307983C12.402 0.307983 11.795 0.863983 11.795 1.87698V6.64998C11.687 6.25098 11.389 5.91998 10.891 5.62898L2.382 0.631983C2.025 0.415983 1.71 0.307983 1.345 0.307983C0.615 0.307983 0 0.863983 0 1.87698V12.112C0 13.125 0.614 13.681 1.345 13.681C1.71 13.681 2.025 13.573 2.382 13.357L10.891 8.35998C11.381 8.06998 11.687 7.72898 11.795 7.32198V12.112C11.795 13.125 12.41 13.68 13.14 13.68Z" fill="currentColor"/>
</svg>
