<svg width="14" height="18" viewBox="0 0 14 18" fill="none" xmlns="http://www.w3.org/2000/svg">
<path d="M3.8931 17.522C4.8481 17.522 5.3291 17.041 5.3291 16.086V1.427C5.3291 0.447 4.8481 0 3.8931 0H1.4361C0.482099 0 9.81632e-05 0.473 9.81632e-05 1.427V16.087C-0.00790184 17.041 0.473099 17.522 1.4361 17.522H3.8931ZM11.7631 17.522C12.7171 17.522 13.1901 17.041 13.1901 16.086V1.427C13.1901 0.447 12.7171 0 11.7621 0H9.2971C8.3421 0 7.8691 0.473 7.8691 1.427V16.087C7.8691 17.041 8.3421 17.522 9.2971 17.522H11.7631Z" fill="currentColor"/>
</svg>
