<svg width="19" height="16" viewBox="0 0 19 16" fill="none" xmlns="http://www.w3.org/2000/svg">
<path fill-rule="evenodd" clip-rule="evenodd" d="M0.837277 0.789673C0.434397 0.789673 0.107422 1.11665 0.107422 1.51953C0.107422 1.92241 0.434397 2.24938 0.837277 2.24938H16.8941C17.297 2.24938 17.6239 1.92241 17.6239 1.51953C17.6239 1.11665 17.297 0.789673 16.8941 0.789673H0.837277ZM0.837277 4.68223C0.434397 4.68223 0.107422 5.00921 0.107422 5.41209C0.107422 5.81497 0.434397 6.14195 0.837277 6.14195H16.8941C17.297 6.14195 17.6239 5.81497 17.6239 5.41209C17.6239 5.00921 17.297 4.68223 16.8941 4.68223H0.837277ZM0.837277 8.5748C0.434397 8.5748 0.107422 8.90177 0.107422 9.30465C0.107422 9.70753 0.434397 10.0345 0.837277 10.0345H9.10897C9.51185 10.0345 9.83883 9.70753 9.83883 9.30465C9.83883 8.90177 9.51185 8.5748 9.10897 8.5748H0.837277ZM9.10897 12.4674C9.51185 12.4674 9.83883 12.7943 9.83883 13.1972C9.83883 13.6001 9.51185 13.9271 9.10897 13.9271H0.837277C0.434397 13.9271 0.107422 13.6001 0.107422 13.1972C0.107422 12.7943 0.434397 12.4674 0.837277 12.4674H9.10897ZM12.513 8.9913C12.189 8.80543 11.7851 9.03996 11.7851 9.41364V15.5211C11.7851 15.8948 12.189 16.1293 12.513 15.9434L18.5971 12.4674L12.513 8.9913Z" fill="currentColor"/>
</svg>
