<svg width="16" height="16" viewBox="0 0 16 16" fill="none" xmlns="http://www.w3.org/2000/svg">
<path d="M8 1.5C6.27609 1.5 4.62279 2.18482 3.40381 3.40381C2.18482 4.62279 1.5 6.27609 1.5 8C1.5 9.72391 2.18482 11.3772 3.40381 12.5962C4.62279 13.8152 6.27609 14.5 8 14.5C9.72391 14.5 11.3772 13.8152 12.5962 12.5962C13.8152 11.3772 14.5 9.72391 14.5 8C14.5 6.27609 13.8152 4.62279 12.5962 3.40381C11.3772 2.18482 9.72391 1.5 8 1.5ZM0 8C0 5.87827 0.842855 3.84344 2.34315 2.34315C3.84344 0.842855 5.87827 0 8 0C10.1217 0 12.1566 0.842855 13.6569 2.34315C15.1571 3.84344 16 5.87827 16 8C16 10.1217 15.1571 12.1566 13.6569 13.6569C12.1566 15.1571 10.1217 16 8 16C5.87827 16 3.84344 15.1571 2.34315 13.6569C0.842855 12.1566 0 10.1217 0 8Z" fill="#7F7F7F"/>
<path d="M11.75 8.75H8.75C8.75 9.75 8.75 10.75 8.75 11.75C8.25 11.75 7.75 11.75 7.25 11.75C7.25 10.75 7.25 9.75 7.25 8.75C6.24999 8.75 5.24998 8.75 4.24997 8.75C4.25 8.25 4.25 7.75 4.25 7.25C5.25 7.25 6.25 7.25 7.25 7.25C7.25 6.25 7.25 5.25 7.25 4.25L8.75 4.25C8.75 5.25 8.75 6.25 8.75 7.25H11.75V8.75Z" fill="#7F7F7F"/>
</svg>
