<svg width="16" height="14" viewBox="0 0 16 14" fill="none" xmlns="http://www.w3.org/2000/svg">
<path d="M0.230665 3.75667C0.0788536 3.92254 -0.00379372 4.14192 0.000134468 4.36861C0.00406265 4.59529 0.0942612 4.81158 0.251725 4.97189C0.409189 5.13221 0.621626 5.22404 0.844279 5.22804C1.06693 5.23204 1.28242 5.14789 1.44534 4.99333L3.41632 2.98667V13.125C3.41632 13.3571 3.50687 13.5796 3.66805 13.7437C3.82922 13.9078 4.04782 14 4.27576 14C4.5037 14 4.7223 13.9078 4.88348 13.7437C5.04465 13.5796 5.1352 13.3571 5.1352 13.125V2.98667L7.10618 4.99333C7.2691 5.14789 7.48459 5.23204 7.70724 5.22804C7.9299 5.22404 8.14233 5.13221 8.2998 4.97189C8.45726 4.81158 8.54746 4.59529 8.55139 4.36861C8.55532 4.14193 8.47267 3.92254 8.32086 3.75667L4.8831 0.256666C4.72195 0.0928073 4.50351 0.000769431 4.27576 0.000769421C4.04801 0.000769411 3.82957 0.0928073 3.66842 0.256666L0.230665 3.75667ZM7.67914 10.2433C7.5947 10.1632 7.52698 10.0666 7.48 9.95929C7.43303 9.85196 7.40777 9.7361 7.40574 9.61861C7.4037 9.50112 7.42493 9.38442 7.46815 9.27547C7.51138 9.16652 7.57572 9.06754 7.65733 8.98446C7.73894 8.90137 7.83615 8.83586 7.94317 8.79186C8.05018 8.74785 8.16481 8.72624 8.2802 8.72831C8.3956 8.73038 8.50941 8.7561 8.61483 8.80392C8.72025 8.85175 8.81514 8.9207 8.89382 9.00667L10.8648 11.0133V0.875C10.8648 0.642935 10.9553 0.420376 11.1165 0.256281C11.2777 0.0921869 11.4963 -1.96863e-07 11.7242 -1.86899e-07C11.9522 -1.76936e-07 12.1708 0.092187 12.332 0.256281C12.4931 0.420376 12.5837 0.642935 12.5837 0.875V11.0133L14.5547 9.00667C14.7176 8.85211 14.9331 8.76796 15.1557 8.77196C15.3784 8.77596 15.5908 8.86779 15.7483 9.02811C15.9057 9.18842 15.9959 9.40471 15.9999 9.63139C16.0038 9.85808 15.9211 10.0775 15.7693 10.2433L12.3316 13.7433C12.1704 13.9072 11.952 13.9992 11.7242 13.9992C11.4965 13.9992 11.278 13.9072 11.1169 13.7433L7.67914 10.2433Z" fill="#7F7F7F"/>
</svg>
